<?xml version="1.0" standalone="no"?>
<!DOCTYPE svg PUBLIC "-//W3C//DTD SVG 20010904//EN"
 "http://www.w3.org/TR/2001/REC-SVG-20010904/DTD/svg10.dtd">
<svg version="1.0" xmlns="http://www.w3.org/2000/svg"
 width="572.000000pt" height="517.000000pt" viewBox="0 0 572.000000 517.000000"
 preserveAspectRatio="xMidYMid meet">

<g transform="translate(0.000000,517.000000) scale(0.100000,-0.100000)"
fill="#000000" stroke="none">
<path d="M2560 4989 c-1027 -97 -1897 -769 -2200 -1701 -72 -220 -110 -461
-110 -701 0 -356 76 -691 229 -1004 75 -153 148 -276 161 -268 4 3 7 -3 6 -13
0 -9 4 -16 11 -15 7 2 10 -4 7 -12 -4 -8 1 -17 10 -21 9 -3 14 -9 11 -14 -2
-4 3 -16 13 -26 9 -10 32 -38 50 -62 19 -23 38 -40 43 -37 5 4 6 0 3 -8 -3 -8
8 -25 26 -41 33 -28 62 -34 57 -13 -1 6 5 12 13 12 8 0 14 -6 12 -13 -2 -12
46 -37 56 -28 2 3 14 -1 26 -9 11 -8 28 -15 38 -15 10 0 18 -5 18 -11 0 -7 11
-9 29 -6 23 5 28 3 27 -11 -1 -13 10 -17 53 -18 46 -2 58 -7 82 -33 19 -21 37
-31 58 -31 16 0 41 -4 56 -10 14 -5 46 -11 70 -12 67 -2 74 -15 9 -17 -95 -3
-75 -11 32 -13 99 -1 99 -1 27 -7 -102 -8 -102 -21 0 -21 93 0 128 -7 105 -21
-19 -13 8 -28 52 -30 l35 -1 -30 -8 c-36 -9 -28 -12 48 -15 31 -2 64 -8 72
-15 8 -7 22 -10 30 -6 9 3 13 2 10 -4 -3 -6 -1 -10 5 -10 6 0 8 -4 5 -10 -3
-5 3 -10 13 -10 11 0 37 -7 58 -16 23 -10 52 -14 72 -10 40 6 73 -17 53 -37
-20 -20 -12 -27 32 -27 23 0 49 -4 57 -10 8 -5 17 -5 20 0 3 4 19 5 35 2 l30
-6 -30 -6 -30 -7 35 -10 c19 -6 27 -12 18 -12 -10 -1 -18 -6 -18 -12 0 -6 9
-9 20 -6 11 3 43 -2 72 -11 l53 -15 -29 -12 -29 -12 29 -11 c16 -6 23 -11 16
-11 -7 -1 -10 -5 -7 -11 3 -5 30 -10 58 -10 29 -1 62 -6 74 -13 21 -11 23 -15
23 -36 0 -5 9 -11 20 -14 11 -3 20 -12 20 -21 0 -9 8 -16 18 -16 13 0 14 2 4
9 -11 7 -11 9 2 14 21 8 52 -3 36 -13 -8 -5 -7 -9 4 -13 11 -5 16 -1 16 13 0
12 5 17 14 14 8 -3 12 -13 9 -22 -5 -20 39 -42 92 -46 48 -4 57 -16 13 -16
-45 0 -53 -9 -28 -30 21 -18 115 -34 147 -25 10 3 0 -3 -22 -14 l-40 -20 42 0
c23 -1 45 3 48 9 9 15 25 12 25 -5 0 -11 -14 -15 -57 -17 -40 -1 -47 -3 -23
-5 50 -6 337 14 460 32 214 33 449 100 662 192 l127 55 412 -137 c285 -95 430
-139 473 -142 213 -18 417 134 466 346 26 111 13 172 -129 596 l-131 389 41
86 c230 477 289 1025 168 1537 -188 793 -815 1461 -1632 1740 -192 65 -422
113 -632 133 -126 11 -379 11 -505 -1z m525 -450 c487 -52 956 -277 1300 -624
512 -516 689 -1240 469 -1915 -38 -116 -121 -295 -178 -383 -20 -32 -36 -64
-36 -72 0 -7 69 -221 154 -474 93 -275 150 -461 143 -461 -7 0 -223 70 -481
156 l-470 157 -105 -56 c-577 -304 -1271 -350 -1861 -121 -52 20 -106 37 -120
37 -14 0 -19 2 -11 5 8 3 -12 17 -49 33 -71 33 -74 34 -64 17 4 -7 3 -8 -5 -4
-6 4 -9 11 -6 15 2 5 -19 21 -48 36 -29 16 -64 37 -79 47 -16 11 -33 16 -39
12 -7 -4 -9 -3 -6 3 8 13 -50 56 -65 47 -6 -4 -8 -3 -5 3 4 6 -15 25 -41 44
-104 74 -271 235 -362 349 -363 456 -502 1015 -389 1565 121 582 529 1093
1094 1370 393 192 803 262 1260 214z m-2221 -3448 c14 -15 14 -20 2 -30 -11
-9 -14 -8 -12 5 0 9 -5 19 -12 21 -8 3 -10 -1 -5 -14 6 -17 5 -17 -16 2 -21
18 -21 20 -4 26 27 11 28 11 47 -10z m176 -71 c0 -5 -5 -10 -11 -10 -5 0 -7 5
-4 10 3 6 8 10 11 10 2 0 4 -4 4 -10z m815 -220 c3 -6 -4 -10 -17 -10 -18 0
-20 2 -8 10 19 12 18 12 25 0z m-200 -9 c7 -12 -12 -24 -25 -16 -11 7 -4 25
10 25 5 0 11 -4 15 -9z m608 -148 c-7 -2 -19 -2 -25 0 -7 3 -2 5 12 5 14 0 19
-2 13 -5z m-76 -19 c-3 -3 -12 -4 -19 -1 -8 3 -5 6 6 6 11 1 17 -2 13 -5z
m515 -386 c-9 -9 -15 -9 -24 0 -9 9 -7 12 12 12 19 0 21 -3 12 -12z m50 0 c-9
-9 -15 -9 -24 0 -9 9 -7 12 12 12 19 0 21 -3 12 -12z m255 -34 c-3 -3 -12 -4
-19 -1 -8 3 -5 6 6 6 11 1 17 -2 13 -5z"/>
<path d="M876 998 c16 -15 35 -26 42 -23 10 4 12 0 8 -11 -5 -13 -4 -14 7 -6
8 7 16 10 19 7 4 -4 3 23 -1 44 -1 2 -9 -3 -19 -12 -16 -15 -21 -15 -38 -2
-15 12 -16 16 -5 24 9 6 6 9 -14 9 l-26 0 27 -30z"/>
<path d="M1008 973 c7 -3 16 -2 19 1 4 3 -2 6 -13 5 -11 0 -14 -3 -6 -6z"/>
<path d="M1015 910 c-4 -6 -12 -7 -18 -4 -7 4 -8 3 -4 -1 13 -15 34 -14 34 1
0 17 -4 18 -12 4z"/>
<path d="M1030 846 c0 -2 8 -10 18 -17 15 -13 16 -12 3 4 -13 16 -21 21 -21
13z"/>
<path d="M1935 630 c3 -5 19 -10 36 -10 16 0 29 5 29 10 0 6 -16 10 -36 10
-21 0 -33 -4 -29 -10z"/>
<path d="M2348 393 c6 -2 18 -2 25 0 6 3 1 5 -13 5 -14 0 -19 -2 -12 -5z"/>
<path d="M2508 308 c9 -9 15 -9 24 0 9 9 7 12 -12 12 -19 0 -21 -3 -12 -12z"/>
<path d="M2428 193 c7 -3 16 -2 19 1 4 3 -2 6 -13 5 -11 0 -14 -3 -6 -6z"/>
<path d="M2518 183 c7 -3 16 -2 19 1 4 3 -2 6 -13 5 -11 0 -14 -3 -6 -6z"/>
<path d="M2613 173 c15 -2 39 -2 55 0 15 2 2 4 -28 4 -30 0 -43 -2 -27 -4z"/>
</g>
</svg>
